# xmcd
#
# Track frame offsets: 
#        182
#        12960
#        25775
#        37942
#        50210
#        60350
#        71392
#        84150
#        97855
#        109327
#        123770
#        135995
#        147290
#        166675
#        180285
#        195572
#
# Disc length: 2757 seconds
#
# Revision: 4
# Processed by: cddbd v1.5.2PL0 Copyright (c) Steve Scherf et al.
# Submitted via: ExactAudioCopyFreeDBPlugin 1.0
#
DISCID=bb0ac310
DTITLE=Dinah Washington - Mad About The Boy
DYEAR=1995
DGENRE=Blues
TTITLE0=Mad About The Boy
TTITLE1=I Wanna Be Loved
TTITLE2=It's Too Soon To Know
TTITLE3=Unforgettable
TTITLE4=Wheel of Fortune
TTITLE5=I Only Know
TTITLE6=Am I Asking Too Much?
TTITLE7=Soft Winds
TTITLE8=What a Difference a Day Makes
TTITLE9=I Don't Hurt Anymore
TTITLE10=Dream
TTITLE11=Time After Time
TTITLE12=Manhattan
TTITLE13=Trust In Me
TTITLE14=Smoke Gets In Your Eyes
TTITLE15=Our Love is Here to Stay
EXTD=
EXTT0=
EXTT1=
EXTT2=
EXTT3=
EXTT4=
EXTT5=
EXTT6=
EXTT7=
EXTT8=
EXTT9=
EXTT10=
EXTT11=
EXTT12=
EXTT13=
EXTT14=
EXTT15=
PLAYORDER=
